<?xml version="1.0" encoding="UTF-8"?>
<svg id="Layer_2" data-name="Layer 2" xmlns="http://www.w3.org/2000/svg" viewBox="0 0 91.44 91.44">
  <defs>
    <style>
      .cls-1 {
        fill: #aeadae;
      }
    </style>
  </defs>
  <g id="Layer_1-2" data-name="Layer 1">
    <path class="cls-1" d="M88.29,91.44c-.84,0-1.63-.33-2.22-.92l-23.11-23.11-1.39,1.08c-6.72,5.21-14.79,7.97-23.34,7.97C17.15,76.47,0,59.31,0,38.23S17.15,0,38.23,0s38.23,17.15,38.23,38.23c0,8.55-2.76,16.62-7.99,23.36l-1.08,1.39,23.13,23.11c.59,.59,.92,1.38,.92,2.21s-.33,1.62-.92,2.21c-.59,.59-1.39,.92-2.23,.92Zm-53.62-21.46c1.18,.14,2.35,.21,3.56,.21,17.62,0,31.96-14.34,31.96-31.96,0-16.62-12.46-30.29-28.99-31.82-1.15-.14-2.39-.21-3.62-.21-17.62,0-31.96,14.34-31.96,31.96,0,16.5,12.33,30.15,28.71,31.79,.14,.02,.25,.03,.34,.03Z"/>
  </g>
</svg>