<?xml version="1.0" encoding="UTF-8"?>
<svg id="Layer_2" data-name="Layer 2" xmlns="http://www.w3.org/2000/svg" viewBox="0 0 95.44 95.44">
  <defs>
    <style>
      .cls-1 {
        fill: #aeadae;
      }
    </style>
  </defs>
  <g id="Layer_1-2" data-name="Layer 1">
    <path class="cls-1" d="M93.94,86.68l-21.88-21.86c5.27-6.8,8.41-15.32,8.41-24.58C80.47,18.01,62.45,0,40.23,0S0,18.01,0,40.23s18.01,40.23,40.23,40.23c9.26,0,17.77-3.12,24.57-8.39l21.86,21.86c2,2,5.26,2,7.28,0,2-2,2-5.26,0-7.26Zm-53.71-16.49c-1.16,0-2.29-.07-3.42-.21-.07,0-.12,0-.19-.02-15.15-1.47-27-14.26-27-29.81,0-16.56,13.42-29.96,29.96-29.96,1.16,0,2.31,.07,3.44,.21,15.25,1.4,27.17,14.21,27.17,29.82,0,16.54-13.41,29.96-29.96,29.96Z"/>
  </g>
</svg>