<?xml version="1.0" encoding="utf-8"?>
<!-- Generator: Adobe Illustrator 27.0.0, SVG Export Plug-In . SVG Version: 6.00 Build 0)  -->
<svg version="1.1" id="Layer_2_00000019661354658147066210000007097114614858054031_"
	 xmlns="http://www.w3.org/2000/svg" xmlns:xlink="http://www.w3.org/1999/xlink" x="0px" y="0px" viewBox="0 0 93.4 93.4"
	 style="enable-background:new 0 0 93.4 93.4;" xml:space="preserve">
<style type="text/css">
	.st0{fill:#AEADAE;}
</style>
<g id="Layer_1-2">
	<path class="st0" d="M89.3,93.4c-1.1,0-2.1-0.4-2.9-1.2L63.9,69.7l-0.7,0.5c-6.9,5.3-15.2,8.2-24,8.2C17.6,78.5,0,60.9,0,39.2
		S17.6,0,39.2,0s39.2,17.6,39.2,39.2c0,8.8-2.8,17.1-8.2,24l-0.5,0.7l22.5,22.5c0.8,0.8,1.2,1.8,1.2,2.9s-0.4,2.1-1.2,2.9
		C91.4,93,90.4,93.4,89.3,93.4L89.3,93.4z M35.7,70c1.2,0.1,2.3,0.2,3.5,0.2c17.1,0,31-13.9,31-31c0-16.1-12.1-29.4-28.1-30.8
		c-1.1-0.1-2.3-0.2-3.5-0.2c-17.1,0-31,13.9-31,31c0,16,12,29.2,27.8,30.8C35.6,70,35.7,70,35.7,70z"/>
</g>
</svg>
