<?xml version="1.0" encoding="utf-8"?>
<!-- Generator: Adobe Illustrator 27.0.0, SVG Export Plug-In . SVG Version: 6.00 Build 0)  -->
<svg version="1.1" id="Layer_2_00000161615994102830298880000016265334351277645501_"
	 xmlns="http://www.w3.org/2000/svg" xmlns:xlink="http://www.w3.org/1999/xlink" x="0px" y="0px" viewBox="0 0 254.4 38.4"
	 style="enable-background:new 0 0 254.4 38.4;" xml:space="preserve">
<style type="text/css">
	.st0{fill:#FFFFFF;}
	.st1{fill:#2B5FAD;}
	.st2{fill:#2470B5;}
</style>
<g id="Layer_1-2">
	<g>
		<g>
			<path d="M48.8,15.6h-2.1v-2h4.8v2.1c2.5-3.7,7.7-2.9,8.8,0.4c0.5-0.6,0.9-1.2,1.5-1.7c1.6-1.4,4-1.6,5.8-0.5c1.4,0.8,2,2.2,2,3.7
				c0.1,2.1,0,4.1,0,6.2c0,0.3,0,0.6,0,1h2.2v2h-6.1V25c0.4,0,0.8,0,1.2-0.1c0.1-0.1,0.1-0.1,0.1-0.1c0-2.3,0-4.6-0.1-6.8
				c-0.1-1.3-0.9-2.3-2-2.5c-1.4-0.3-2.8,0.2-3.5,1.3c-0.6,0.9-0.9,1.9-0.9,2.9c0,1.5,0,3,0,4.5c0,0.6,0.2,0.9,0.8,0.8
				c0.4,0,0.8,0,1.3,0v1.9h-6.1V25c0.4,0,0.8-0.1,1.2-0.1c0.1-0.1,0.1-0.1,0.1-0.1c0-2.2,0-4.5-0.1-6.8c-0.1-1.3-0.9-2.3-2-2.5
				c-1.3-0.3-2.8,0.1-3.5,1.2c-0.4,0.6-0.8,1.3-0.8,2c-0.1,2.1,0,4.1,0,6.3H54v1.9h-7.3V25h2.1L48.8,15.6L48.8,15.6z"/>
			<path d="M183.1,6.4v18.4h2.1v1.9h-4.7v-2.5c-0.2,0.3-0.4,0.5-0.4,0.6c-1.6,2.1-3.7,2.7-6.1,2c-1.5-0.4-2.7-1.4-3.4-2.8
				c-0.6-1.3-0.8-2.8-0.7-4.2c0.1-1.7,0.6-3.4,1.6-4.7c1-1.2,2.6-2,4.2-2s3.5,0.5,4.4,1.9c0.1,0.1,0.2,0.2,0.3,0.4V8.3h-3.1V6.4
				H183.1L183.1,6.4z M172.6,20.3C172.6,20.3,172.6,20.3,172.6,20.3c0,1.3,0.4,2.6,1.3,3.5c0.8,0.9,2,1.3,3.1,1.1s2.1-0.9,2.7-1.9
				c0.8-1.2,0.9-2.5,0.8-3.9c-0.1-1.9-1.3-3.4-3.1-3.7c-1.2-0.2-2.5,0-3.4,0.9C173,17.3,172.6,18.9,172.6,20.3L172.6,20.3z"/>
			<path d="M82.7,15.6V8.4h-3.1v-2h5.7v18.5h2.2v1.9h-4.7v-2.5c-0.2,0.2-0.3,0.3-0.4,0.4c-1.5,2.1-3.6,2.8-6,2.2
				c-1.4-0.3-2.6-1.1-3.3-2.3c-0.9-1.5-1.1-3.5-0.9-5.3c0.1-1.4,0.5-2.7,1.4-3.8c1.5-2,4.3-2.8,6.7-2c0.5,0.2,0.9,0.4,1.3,0.7
				c0.2,0.2,0.4,0.4,0.6,0.6c0.1,0.1,0.2,0.2,0.3,0.3C82.5,15.3,82.7,15.5,82.7,15.6L82.7,15.6z M82.6,20c0-0.8-0.1-1.7-0.4-2.5
				c-0.4-1.2-1.9-2-3.1-2.1c-1.3-0.1-2.6,0.4-3.4,1.6c-1.2,1.8-1.2,3.8-0.5,5.8c0.8,2.2,3.7,2.9,5.5,1.5c0.8-0.6,1.3-1.5,1.6-2.4
				C82.5,21.3,82.6,20.6,82.6,20L82.6,20z"/>
			<path d="M134.3,13.5v2h-1.9L129,26.7h-2.8c0,0-2.1-6-3.1-8.5c-0.1-0.3-0.3-0.5-0.5-1c-1.2,3-3.5,9.6-3.5,9.6h-2.5
				c0,0-2.7-8.1-3.8-11.2H111v-1.9h6.2v1.9h-1.6c0.9,2.6,1.7,5,2.6,7.7c0.2-0.4,0.3-0.7,0.4-0.9c1.1-2.7,3.2-8.7,3.2-8.7h2.3
				l3.9,9.5l2.2-7.5h-2v-2H134.3z"/>
			<path d="M149.5,8.3h-2.2V6.3h4.7v9.5c0.1,0,0.1,0,0.2,0.1c0.2-0.3,0.4-0.6,0.6-0.8c2.1-2.9,7.4-2.4,9.1,1.1
				c1.4,2.7,0.9,6.9-1,9.2c-2.1,2.5-6.6,2.4-8.6-0.1c-0.1-0.1-0.2-0.2-0.4-0.5c-0.1,0.7-0.2,1.4-0.3,2h-2.6
				C149.8,20.6,149.3,14.5,149.5,8.3L149.5,8.3z M159.9,20.2c0-0.3,0-0.7,0-1c-0.2-1.8-1.1-3.5-3.1-3.8c-1.6-0.3-2.9,0.1-3.9,1.6
				c-1.2,1.8-1.2,3.7-0.6,5.6c0.5,1.6,1.9,2.4,3.6,2.4c1.2,0,2.4-0.4,3-1.5C159.6,22.5,159.9,21.4,159.9,20.2L159.9,20.2z"/>
			<path d="M93.7,13.7v2c0.4-0.4,0.6-0.7,0.8-1c1.8-1.8,5.3-1.9,7.2-0.1c0.8,0.8,1.2,1.8,1.2,2.9c0.1,2.1,0,4.3,0.1,6.5
				c0,0.3,0,0.6,0,1h2.2v1.9h-7V25h2c0-2.5,0.1-4.8,0-7.1c-0.1-1.2-0.8-2.1-1.9-2.4c-1.3-0.3-2.6-0.1-3.5,1
				c-0.7,0.7-1.1,1.6-1.1,2.6c-0.1,1.9,0,3.8,0,5.8c0.7,0,1.4,0.1,2.2,0.1v1.9h-6.9v-1.9c0.5,0,1,0,1.5,0c0.4,0,0.6-0.1,0.6-0.6
				c0-2.7,0-5.4,0-8.1c0-0.5-0.2-0.6-0.6-0.6c-0.5,0-1.1,0-1.6,0v-1.9L93.7,13.7L93.7,13.7z"/>
			<path d="M146.5,20.8h-9.2c-0.2,2.5,1.3,4.1,3.7,4.2c1.7,0,3-0.7,3.7-2.3l2.2,0.1c-0.3,1.8-1.3,3-2.8,3.6
				c-2.7,1.1-5.9,0.8-7.9-1.3c-2.2-2.3-1.9-8.1,0.3-10.2c1.8-1.8,5.3-2.3,7.7-0.9C146.2,15.2,147.4,18.3,146.5,20.8L146.5,20.8z
				 M144,18.9c0.1-2.1-1-3.6-2.9-3.7c-2.1-0.2-3.5,1.2-3.8,3.7H144L144,18.9z"/>
			<path d="M193.1,13.2c4.8-0.1,6.8,3.4,6.8,7c0,4.1-2.9,6.9-7.1,6.9c-4.1,0-6.7-2.6-6.7-6.8C186.2,16.7,188.2,13,193.1,13.2
				L193.1,13.2z M188.9,20.1c0,0.3,0,0.6,0.1,1c0.1,1,0.4,1.9,1,2.7c0.8,1,1.9,1.4,3.1,1.3c1.5-0.1,2.7-0.8,3.4-2.1
				c0.6-1.1,0.7-2.4,0.6-3.6c-0.2-2.3-1.6-3.8-3.8-3.9c-1-0.1-2,0.1-2.8,0.8c-0.7,0.6-1.2,1.5-1.4,2.4
				C188.9,19,188.9,19.6,188.9,20.1L188.9,20.1z"/>
			<path d="M215.5,22.6c0.7,0.1,1.3,0.1,2,0.2c0,0.3-0.1,1.7-0.1,1.7c1.4,0.3,3.9,0.5,5.2,0c0.7-0.3,1.2-0.7,1.2-1.5
				c0-0.8-0.5-1.4-1.2-1.6c-1.3-0.4-2.7-0.6-4-1c-0.1,0-0.2,0-0.3-0.1c-1.9-0.5-2.8-1.4-2.9-3.1c-0.1-2.1,0.8-3.2,2.8-3.8
				c2.4-0.7,4.7-0.5,7,0.6c0.2,0.1,0.4,0.3,0.4,0.5c0.1,0.9,0.2,1.9,0.2,2.9c-0.7,0.1-1.4,0.2-2,0.2c-0.1-0.3-0.2-2.3-0.2-2.3
				s-1-0.3-2.4-0.3c-2.1,0-2.9,0.9-3,1.7c0,0.7,0.3,1.2,1,1.4c1.2,0.3,2.5,0.6,3.8,0.9c0.4,0.1,0.8,0.2,1.2,0.4
				c1.2,0.5,2.1,1.3,2.2,2.7c0.1,1.6-0.3,2.9-1.7,3.7c-3,1.7-6.5,1.2-9.5-0.2C215.1,25.8,215.4,23.6,215.5,22.6L215.5,22.6z"/>
			<path d="M213.1,18l-2.1,0.2l-0.5-2.2c-2.7-1.8-6-0.4-6.3,2.9c-0.2,1.5-0.2,3,0.6,4.3c0.8,1.4,2.1,1.9,3.6,1.8s2.4-1,2.8-2.4
				c0.1-0.2,0.1-0.5,0.2-0.8c0.7,0.1,1.4,0.3,2.2,0.4c-0.2,1.6-0.9,3-2.3,3.9c-2.1,1.4-4.4,1.4-6.6,0.4c-2.1-0.9-3.1-2.7-3.3-4.9
				c-0.2-2.2,0.1-4.3,1.5-6.1c0.9-1.2,2-1.9,3.4-2.2c2-0.3,4.4-0.2,6.4,1.4C212.8,15.8,213.1,18,213.1,18L213.1,18z"/>
			<path class="st0" d="M144,18.9h-6.7c0.3-2.5,1.7-3.9,3.8-3.7C143,15.3,144.1,16.8,144,18.9L144,18.9z"/>
		</g>
		<g>
			<rect x="33.1" class="st1" width="3.9" height="33.6"/>
			<polygon class="st1" points="18.5,33.6 22.4,33.6 33.1,0 29.2,0 			"/>
			<rect x="14.6" class="st1" width="3.9" height="33.6"/>
			<polygon class="st1" points="0,33.6 3.9,33.6 14.6,0 10.6,0 			"/>
		</g>
		<rect x="229.9" y="35.1" class="st2" width="24.5" height="3.3"/>
	</g>
</g>
</svg>
